# HS4 archived input geometry. Coordinates in metres; Z up.
# No smoothing or exaggeration.
mtllib hs4_scene.mtl
o rock
s off
usemtl rock
v 0 0.025 0
v 0.25 0.025 0
v 0.25 0.025 9.05
v 0 0.025 9.05
v 0.5 0.025 0
v 0.5 0.025 9.05
v 0.75 0.025 0
v 0.75 0.025 9.05
v 1 0.025 0
v 1 0.025 9.05
v 1.25 0.025 0
v 1.25 0.025 9.05
v 1.5 0.025 0
v 1.5 0.025 9.05
v 1.75 0.025 0
v 1.75 0.025 9.05
v 2 0.025 0
v 2 0.025 9.05
v 2.25 0.025 0
v 2.25 0.025 9.05
v 2.5 0.025 0
v 2.5 0.025 9.05
v 2.75 0.025 0
v 2.75 0.025 9.05
v 3 0.025 0
v 3 0.025 9.05
v 3.25 0.025 0
v 3.25 0.025 9.05
v 3.5 0.025 0
v 3.5 0.025 9.05
v 3.75 0.025 0
v 3.75 0.025 9.05
v 4 0.025 0
v 4 0.025 9.05
v 4.25 0.025 0
v 4.25 0.025 9.05
v 4.5 0.025 0
v 4.5 0.025 9.05
v 4.75 0.025 0
v 4.75 0.025 9.05
v 5 0.025 0
v 5 0.025 9.05
v 5.25 0.025 0
v 5.25 0.025 9.05
v 5.5 0.025 0
v 5.5 0.025 9.05
v 5.75 0.025 0
v 5.75 0.025 9.05
v 6 0.025 0
v 6 0.025 9.05
v 6.25 0.025 0
v 6.25 0.025 9.05
v 6.5 0.025 0
v 6.5 0.025 9.05
v 6.75 0.025 0
v 6.75 0.025 9.05
v 7 0.025 0
v 7 0.025 9.05
v 7.25 0.025 0
v 7.25 0.025 9.05
v 7.5 0.025 0
v 7.5 0.025 9.05
v 7.75 0.025 0
v 7.75 0.025 9.05
v 8 0.025 0
v 8 0.025 9.05
v 8.25 0.025 0
v 8.25 0.025 9.05
v 8.5 0.025 0
v 8.5 0.025 9.05
v 8.75 0.025 0
v 8.75 0.025 9.05
v 9 0.025 0
v 9 0.025 9.05
v 9.25 0.025 0
v 9.25 0.025 9.05
v 9.5 0.025 0
v 9.5 0.025 9.05
v 9.75 0.025 0
v 9.75 0.025 9.05
v 10 0.025 0
v 10 0.025 9.05
v 10.25 0.025 0
v 10.25 0.025 9.05
v 10.5 0.025 0
v 10.5 0.025 9.05
v 10.75 0.025 0
v 10.75 0.025 9.05
v 11 0.025 0
v 11 0.025 9.05
v 11.25 0.025 0
v 11.25 0.025 9.05
v 11.5 0.025 0
v 11.5 0.025 9.05
v 11.75 0.025 0
v 11.75 0.025 9.05
v 12 0.025 0
v 12 0.025 9.05
f 1 2 3
f 1 3 4
f 2 5 6
f 2 6 3
f 5 7 8
f 5 8 6
f 7 9 10
f 7 10 8
f 9 11 12
f 9 12 10
f 11 13 14
f 11 14 12
f 13 15 16
f 13 16 14
f 15 17 18
f 15 18 16
f 17 19 20
f 17 20 18
f 19 21 22
f 19 22 20
f 21 23 24
f 21 24 22
f 23 25 26
f 23 26 24
f 25 27 28
f 25 28 26
f 27 29 30
f 27 30 28
f 29 31 32
f 29 32 30
f 31 33 34
f 31 34 32
f 33 35 36
f 33 36 34
f 35 37 38
f 35 38 36
f 37 39 40
f 37 40 38
f 39 41 42
f 39 42 40
f 41 43 44
f 41 44 42
f 43 45 46
f 43 46 44
f 45 47 48
f 45 48 46
f 47 49 50
f 47 50 48
f 49 51 52
f 49 52 50
f 51 53 54
f 51 54 52
f 53 55 56
f 53 56 54
f 55 57 58
f 55 58 56
f 57 59 60
f 57 60 58
f 59 61 62
f 59 62 60
f 61 63 64
f 61 64 62
f 63 65 66
f 63 66 64
f 65 67 68
f 65 68 66
f 67 69 70
f 67 70 68
f 69 71 72
f 69 72 70
f 71 73 74
f 71 74 72
f 73 75 76
f 73 76 74
f 75 77 78
f 75 78 76
f 77 79 80
f 77 80 78
f 79 81 82
f 79 82 80
f 81 83 84
f 81 84 82
f 83 85 86
f 83 86 84
f 85 87 88
f 85 88 86
f 87 89 90
f 87 90 88
f 89 91 92
f 89 92 90
f 91 93 94
f 91 94 92
f 93 95 96
f 93 96 94
f 95 97 98
f 95 98 96
o cover
s off
usemtl cover
v 0 0.025 9.05
v 0.25 0.025 9.05
v 0.25 0.025 12
v 0 0.025 12
v 0.5 0.025 9.05
v 0.5 0.025 12
v 0.75 0.025 9.05
v 0.75 0.025 12
v 1 0.025 9.05
v 1 0.025 12
v 1.25 0.025 9.05
v 1.25 0.025 12
v 1.5 0.025 9.05
v 1.5 0.025 12
v 1.75 0.025 9.05
v 1.75 0.025 12
v 2 0.025 9.05
v 2 0.025 12
v 2.25 0.025 9.05
v 2.25 0.025 12
v 2.5 0.025 9.05
v 2.5 0.025 12
v 2.75 0.025 9.05
v 2.75 0.025 12
v 3 0.025 9.05
v 3 0.025 12
v 3.25 0.025 9.05
v 3.25 0.025 12
v 3.5 0.025 9.05
v 3.5 0.025 12
v 3.75 0.025 9.05
v 3.75 0.025 12
v 4 0.025 9.05
v 4 0.025 12
v 4.25 0.025 9.05
v 4.25 0.025 12
v 4.5 0.025 9.05
v 4.5 0.025 12
v 4.75 0.025 9.05
v 4.75 0.025 12
v 5 0.025 9.05
v 5 0.025 12
v 5.25 0.025 9.05
v 5.25 0.025 12
v 5.5 0.025 9.05
v 5.5 0.025 12
v 5.75 0.025 9.05
v 5.75 0.025 12
v 6 0.025 9.05
v 6 0.025 12
v 6.25 0.025 9.05
v 6.25 0.025 12
v 6.5 0.025 9.05
v 6.5 0.025 12
v 6.75 0.025 9.05
v 6.75 0.025 12
v 7 0.025 9.05
v 7 0.025 12
v 7.25 0.025 9.05
v 7.25 0.025 12
v 7.5 0.025 9.05
v 7.5 0.025 12
v 7.75 0.025 9.05
v 7.75 0.025 12
v 8 0.025 9.05
v 8 0.025 12
v 8.25 0.025 9.05
v 8.25 0.025 12
v 8.5 0.025 9.05
v 8.5 0.025 12
v 8.75 0.025 9.05
v 8.75 0.025 12
v 9 0.025 9.05
v 9 0.025 12
v 9.25 0.025 9.05
v 9.25 0.025 12
v 9.5 0.025 9.05
v 9.5 0.025 12
v 9.75 0.025 9.05
v 9.75 0.025 12
v 10 0.025 9.05
v 10 0.025 12
v 10.25 0.025 9.05
v 10.25 0.025 12
v 10.5 0.025 9.05
v 10.5 0.025 12
v 10.75 0.025 9.05
v 10.75 0.025 12
v 11 0.025 9.05
v 11 0.025 12
v 11.25 0.025 9.05
v 11.25 0.025 12
v 11.5 0.025 9.05
v 11.5 0.025 12
v 11.75 0.025 9.05
v 11.75 0.025 12
v 12 0.025 9.05
v 12 0.025 12
f 99 100 101
f 99 101 102
f 100 103 104
f 100 104 101
f 103 105 106
f 103 106 104
f 105 107 108
f 105 108 106
f 107 109 110
f 107 110 108
f 109 111 112
f 109 112 110
f 111 113 114
f 111 114 112
f 113 115 116
f 113 116 114
f 115 117 118
f 115 118 116
f 117 119 120
f 117 120 118
f 119 121 122
f 119 122 120
f 121 123 124
f 121 124 122
f 123 125 126
f 123 126 124
f 125 127 128
f 125 128 126
f 127 129 130
f 127 130 128
f 129 131 132
f 129 132 130
f 131 133 134
f 131 134 132
f 133 135 136
f 133 136 134
f 135 137 138
f 135 138 136
f 137 139 140
f 137 140 138
f 139 141 142
f 139 142 140
f 141 143 144
f 141 144 142
f 143 145 146
f 143 146 144
f 145 147 148
f 145 148 146
f 147 149 150
f 147 150 148
f 149 151 152
f 149 152 150
f 151 153 154
f 151 154 152
f 153 155 156
f 153 156 154
f 155 157 158
f 155 158 156
f 157 159 160
f 157 160 158
f 159 161 162
f 159 162 160
f 161 163 164
f 161 164 162
f 163 165 166
f 163 166 164
f 165 167 168
f 165 168 166
f 167 169 170
f 167 170 168
f 169 171 172
f 169 172 170
f 171 173 174
f 171 174 172
f 173 175 176
f 173 176 174
f 175 177 178
f 175 178 176
f 177 179 180
f 177 180 178
f 179 181 182
f 179 182 180
f 181 183 184
f 181 184 182
f 183 185 186
f 183 186 184
f 185 187 188
f 185 188 186
f 187 189 190
f 187 190 188
f 189 191 192
f 189 192 190
f 191 193 194
f 191 194 192
f 193 195 196
f 193 196 194
