# HS4 archived input geometry. Coordinates in metres; Z up.
# No smoothing or exaggeration.
mtllib hs4_scene.mtl
o rock
s off
usemtl rock
v 0 0.025 0
v 0.25 0.025 0
v 0.25 0.025 8.9
v 0 0.025 8.9
v 0.5 0.025 0
v 0.5 0.025 8.9
v 0.75 0.025 0
v 0.75 0.025 8.9
v 1 0.025 0
v 1 0.025 8.9
v 1.25 0.025 0
v 1.25 0.025 8.9
v 1.5 0.025 0
v 1.5 0.025 8.85
v 1.25 0.025 8.85
v 1.75 0.025 0
v 1.75 0.025 8.85
v 2 0.025 0
v 2 0.025 8.75
v 1.75 0.025 8.75
v 2.25 0.025 0
v 2.25 0.025 8.75
v 2.5 0.025 0
v 2.5 0.025 8.75
v 2.75 0.025 0
v 2.75 0.025 8.75
v 3 0.025 0
v 3 0.025 8.85
v 2.75 0.025 8.85
v 3.25 0.025 0
v 3.25 0.025 8.85
v 3.5 0.025 0
v 3.5 0.025 8.9
v 3.25 0.025 8.9
v 3.75 0.025 0
v 3.75 0.025 9
v 3.5 0.025 9
v 4 0.025 0
v 4 0.025 9.05
v 3.75 0.025 9.05
v 4.25 0.025 0
v 4.25 0.025 9.15
v 4 0.025 9.15
v 4.5 0.025 0
v 4.5 0.025 9.2
v 4.25 0.025 9.2
v 4.75 0.025 0
v 4.75 0.025 9.3
v 4.5 0.025 9.3
v 5 0.025 0
v 5 0.025 9.3
v 5.25 0.025 0
v 5.25 0.025 9.35
v 5 0.025 9.35
v 5.5 0.025 0
v 5.5 0.025 9.35
v 5.75 0.025 0
v 5.75 0.025 9.35
v 6 0.025 0
v 6 0.025 9.35
v 6.25 0.025 0
v 6.25 0.025 9.35
v 6.5 0.025 0
v 6.5 0.025 9.35
v 6.75 0.025 0
v 6.75 0.025 9.3
v 6.5 0.025 9.3
v 7 0.025 0
v 7 0.025 9.3
v 7.25 0.025 0
v 7.25 0.025 9.2
v 7 0.025 9.2
v 7.5 0.025 0
v 7.5 0.025 9.2
v 7.75 0.025 0
v 7.75 0.025 9.15
v 7.5 0.025 9.15
v 8 0.025 0
v 8 0.025 9.05
v 7.75 0.025 9.05
v 8.25 0.025 0
v 8.25 0.025 9.05
v 8.5 0.025 0
v 8.5 0.025 9
v 8.25 0.025 9
v 8.75 0.025 0
v 8.75 0.025 9
v 9 0.025 0
v 9 0.025 9
v 9.25 0.025 0
v 9.25 0.025 9
v 9.5 0.025 0
v 9.5 0.025 9
v 9.75 0.025 0
v 9.75 0.025 9
v 10 0.025 0
v 10 0.025 9
v 10.25 0.025 0
v 10.25 0.025 9.05
v 10 0.025 9.05
v 10.5 0.025 0
v 10.5 0.025 9.15
v 10.25 0.025 9.15
v 10.75 0.025 0
v 10.75 0.025 9.15
v 11 0.025 0
v 11 0.025 9.2
v 10.75 0.025 9.2
v 11.25 0.025 0
v 11.25 0.025 9.2
v 11.5 0.025 0
v 11.5 0.025 9.2
v 11.75 0.025 0
v 11.75 0.025 9.2
v 12 0.025 0
v 12 0.025 9.2
f 1 2 3
f 1 3 4
f 2 5 6
f 2 6 3
f 5 7 8
f 5 8 6
f 7 9 10
f 7 10 8
f 9 11 12
f 9 12 10
f 11 13 14
f 11 14 15
f 13 16 17
f 13 17 14
f 16 18 19
f 16 19 20
f 18 21 22
f 18 22 19
f 21 23 24
f 21 24 22
f 23 25 26
f 23 26 24
f 25 27 28
f 25 28 29
f 27 30 31
f 27 31 28
f 30 32 33
f 30 33 34
f 32 35 36
f 32 36 37
f 35 38 39
f 35 39 40
f 38 41 42
f 38 42 43
f 41 44 45
f 41 45 46
f 44 47 48
f 44 48 49
f 47 50 51
f 47 51 48
f 50 52 53
f 50 53 54
f 52 55 56
f 52 56 53
f 55 57 58
f 55 58 56
f 57 59 60
f 57 60 58
f 59 61 62
f 59 62 60
f 61 63 64
f 61 64 62
f 63 65 66
f 63 66 67
f 65 68 69
f 65 69 66
f 68 70 71
f 68 71 72
f 70 73 74
f 70 74 71
f 73 75 76
f 73 76 77
f 75 78 79
f 75 79 80
f 78 81 82
f 78 82 79
f 81 83 84
f 81 84 85
f 83 86 87
f 83 87 84
f 86 88 89
f 86 89 87
f 88 90 91
f 88 91 89
f 90 92 93
f 90 93 91
f 92 94 95
f 92 95 93
f 94 96 97
f 94 97 95
f 96 98 99
f 96 99 100
f 98 101 102
f 98 102 103
f 101 104 105
f 101 105 102
f 104 106 107
f 104 107 108
f 106 109 110
f 106 110 107
f 109 111 112
f 109 112 110
f 111 113 114
f 111 114 112
f 113 115 116
f 113 116 114
o cover
s off
usemtl cover
v 0 0.025 8.9
v 0.25 0.025 8.9
v 0.25 0.025 12
v 0 0.025 12
v 0.5 0.025 8.9
v 0.5 0.025 12
v 0.75 0.025 8.9
v 0.75 0.025 12
v 1 0.025 8.9
v 1 0.025 12
v 1.25 0.025 8.9
v 1.25 0.025 12
v 1.25 0.025 8.85
v 1.5 0.025 8.85
v 1.5 0.025 12
v 1.75 0.025 8.85
v 1.75 0.025 12
v 1.75 0.025 8.75
v 2 0.025 8.75
v 2 0.025 12
v 2.25 0.025 8.75
v 2.25 0.025 12
v 2.5 0.025 8.75
v 2.5 0.025 12
v 2.75 0.025 8.75
v 2.75 0.025 12
v 2.75 0.025 8.85
v 3 0.025 8.85
v 3 0.025 12
v 3.25 0.025 8.85
v 3.25 0.025 12
v 3.25 0.025 8.9
v 3.5 0.025 8.9
v 3.5 0.025 12
v 3.5 0.025 9
v 3.75 0.025 9
v 3.75 0.025 12
v 3.75 0.025 9.05
v 4 0.025 9.05
v 4 0.025 12
v 4 0.025 9.15
v 4.25 0.025 9.15
v 4.25 0.025 12
v 4.25 0.025 9.2
v 4.5 0.025 9.2
v 4.5 0.025 12
v 4.5 0.025 9.3
v 4.75 0.025 9.3
v 4.75 0.025 12
v 5 0.025 9.3
v 5 0.025 12
v 5 0.025 9.35
v 5.25 0.025 9.35
v 5.25 0.025 12
v 5.5 0.025 9.35
v 5.5 0.025 12
v 5.75 0.025 9.35
v 5.75 0.025 12
v 6 0.025 9.35
v 6 0.025 12
v 6.25 0.025 9.35
v 6.25 0.025 12
v 6.5 0.025 9.35
v 6.5 0.025 12
v 6.5 0.025 9.3
v 6.75 0.025 9.3
v 6.75 0.025 12
v 7 0.025 9.3
v 7 0.025 12
v 7 0.025 9.2
v 7.25 0.025 9.2
v 7.25 0.025 12
v 7.5 0.025 9.2
v 7.5 0.025 12
v 7.5 0.025 9.15
v 7.75 0.025 9.15
v 7.75 0.025 12
v 7.75 0.025 9.05
v 8 0.025 9.05
v 8 0.025 12
v 8.25 0.025 9.05
v 8.25 0.025 12
v 8.25 0.025 9
v 8.5 0.025 9
v 8.5 0.025 12
v 8.75 0.025 9
v 8.75 0.025 12
v 9 0.025 9
v 9 0.025 12
v 9.25 0.025 9
v 9.25 0.025 12
v 9.5 0.025 9
v 9.5 0.025 12
v 9.75 0.025 9
v 9.75 0.025 12
v 10 0.025 9
v 10 0.025 12
v 10 0.025 9.05
v 10.25 0.025 9.05
v 10.25 0.025 12
v 10.25 0.025 9.15
v 10.5 0.025 9.15
v 10.5 0.025 12
v 10.75 0.025 9.15
v 10.75 0.025 12
v 10.75 0.025 9.2
v 11 0.025 9.2
v 11 0.025 12
v 11.25 0.025 9.2
v 11.25 0.025 12
v 11.5 0.025 9.2
v 11.5 0.025 12
v 11.75 0.025 9.2
v 11.75 0.025 12
v 12 0.025 9.2
v 12 0.025 12
f 117 118 119
f 117 119 120
f 118 121 122
f 118 122 119
f 121 123 124
f 121 124 122
f 123 125 126
f 123 126 124
f 125 127 128
f 125 128 126
f 129 130 131
f 129 131 128
f 130 132 133
f 130 133 131
f 134 135 136
f 134 136 133
f 135 137 138
f 135 138 136
f 137 139 140
f 137 140 138
f 139 141 142
f 139 142 140
f 143 144 145
f 143 145 142
f 144 146 147
f 144 147 145
f 148 149 150
f 148 150 147
f 151 152 153
f 151 153 150
f 154 155 156
f 154 156 153
f 157 158 159
f 157 159 156
f 160 161 162
f 160 162 159
f 163 164 165
f 163 165 162
f 164 166 167
f 164 167 165
f 168 169 170
f 168 170 167
f 169 171 172
f 169 172 170
f 171 173 174
f 171 174 172
f 173 175 176
f 173 176 174
f 175 177 178
f 175 178 176
f 177 179 180
f 177 180 178
f 181 182 183
f 181 183 180
f 182 184 185
f 182 185 183
f 186 187 188
f 186 188 185
f 187 189 190
f 187 190 188
f 191 192 193
f 191 193 190
f 194 195 196
f 194 196 193
f 195 197 198
f 195 198 196
f 199 200 201
f 199 201 198
f 200 202 203
f 200 203 201
f 202 204 205
f 202 205 203
f 204 206 207
f 204 207 205
f 206 208 209
f 206 209 207
f 208 210 211
f 208 211 209
f 210 212 213
f 210 213 211
f 214 215 216
f 214 216 213
f 217 218 219
f 217 219 216
f 218 220 221
f 218 221 219
f 222 223 224
f 222 224 221
f 223 225 226
f 223 226 224
f 225 227 228
f 225 228 226
f 227 229 230
f 227 230 228
f 229 231 232
f 229 232 230
